PathFileType	4	(X/Y/Z)	D:\TRACE\spot_10-12-23\spot_arm_motion_1_5-platform.trc
DataRate	CameraRate	NumFrames	NumMarkers	Units	OrigDataRate	OrigDataStartFrame	OrigNumFrames
100.00	100.00	      54	5	mm	100.00	3501	      7000
Frame#	Time	Left_Front			Right_Front			Left_Aft			Right_Aft			Post			
		X1	Y1	Z1	X2	Y2	Z2	X3	Y3	Z3	X4	Y4	Z4	X5	Y5	Z5	

3501	35.000	-781.25018	-21.58036	-647.58667	791.45465	-16.87506	-640.64996	-698.17267	24.04998	489.40030	719.40851	32.28515	575.57251	1.95384	702.38495	-996.07581	
3502	35.010	-781.69745	-21.71426	-647.65149	790.78436	-16.78855	-640.59454	-699.02722	24.15398	489.42896	717.97711	32.05549	575.55591	1.07218	702.42596	-995.84015	
3503	35.020	-783.16467	-21.55329	-647.53674	789.68677	-16.44715	-640.82367	-700.26813	23.85316	489.48508	717.17657	31.88886	575.60144	1.39234	702.00848	-996.20892	
3504	35.030	-783.94904	-21.47542	-647.52734	788.73315	-16.31947	-640.55573	-701.02637	23.74339	489.52017	716.27246	31.75667	575.63715	-0.92328	702.85992	-995.10327	
3505	35.040	-784.88184	-21.33431	-647.63501	787.88568	-16.10351	-640.63025	-701.97424	23.68108	489.57520	715.21796	31.68095	575.72211	-1.58755	703.06787	-995.10577	
3506	35.050	-785.73468	-21.03692	-647.57623	787.00458	-16.03952	-640.67743	-702.85883	23.43341	489.61417	714.33484	31.55491	575.74377	-2.76252	703.42285	-994.92297	
3507	35.060	-787.17535	-20.52079	-647.29773	785.52008	-15.90724	-640.67267	-703.78003	23.32837	489.64883	713.37292	31.33435	575.79968	-3.79086	703.75098	-994.88898	
3508	35.070	-787.86353	-20.40802	-647.54321	784.60931	-15.75917	-640.64264	-704.88977	23.16643	489.69266	712.40814	31.18682	575.87592	-4.49740	704.00269	-994.72601	
3509	35.080	-788.57733	-20.60166	-647.45593	783.75940	-15.74333	-640.47937	-705.94299	22.97099	489.70355	711.34247	31.08203	575.81329	-5.38119	704.17029	-994.47949	
3510	35.090	-790.02838	-20.25076	-647.25000	782.96832	-15.59382	-640.25366	-706.85187	22.92802	489.71750	710.36786	30.89558	575.87427	-4.62105	703.81281	-995.15826	
3511	35.100	-790.42883	-20.21871	-647.30420	781.85889	-15.22385	-640.25079	-707.80670	22.71674	489.75455	709.64905	30.68714	575.95801	-7.43905	704.92511	-994.08698	
3512	35.110	-791.78088	-19.72060	-647.26801	780.86163	-15.06506	-640.17017	-708.70612	22.66266	489.80200	708.34052	30.44875	576.02911	-8.71625	705.39081	-993.67072	
3513	35.120	-792.60687	-19.60988	-647.14050	780.05035	-14.79638	-640.23553	-709.74878	22.50467	489.84665	707.59393	30.17370	576.15424	-9.34530	705.62646	-993.43439	
3514	35.130	-793.52032	-19.41408	-647.11163	778.93549	-14.56141	-640.37958	-710.65570	22.23576	489.96689	706.82843	30.17369	576.26184	-10.23337	705.97467	-992.98657	
3515	35.140	-794.45880	-19.28582	-646.98444	777.98688	-14.22011	-640.21857	-711.59106	22.18408	489.96741	705.45209	29.91495	576.23120	-11.21478	706.27069	-992.36908	
3516	35.150	-795.46332	-18.85895	-647.12939	777.30396	-13.94888	-640.13007	-712.59100	22.03863	490.09637	704.61133	29.82416	576.32642	-12.05731	706.75165	-992.04614	
3517	35.160	-796.48956	-18.65943	-647.15442	776.00391	-13.62152	-640.17371	-713.46857	21.90323	490.21448	703.67499	29.48385	576.39587	-13.37609	707.29205	-991.44342	
3518	35.170	-797.62769	-17.93474	-646.84125	775.31628	-13.46519	-639.95911	-714.47192	21.61158	490.30823	702.76270	29.35100	576.44958	-14.12570	707.62268	-991.38605	
3519	35.180	-798.40186	-18.01144	-646.91498	774.28754	-13.03819	-639.94281	-715.30725	21.42860	490.45944	701.75476	29.08907	576.51099	-15.03933	707.99835	-991.13232	
3520	35.190	-799.36047	-17.69419	-646.88605	773.17175	-12.69917	-639.94379	-716.47107	21.16893	490.49130	700.86243	28.82128	576.67816	-16.15890	708.48932	-990.75427	
3521	35.200	-800.55530	-17.11244	-646.61859	772.49628	-12.56873	-639.86737	-717.29791	20.93424	490.85214	700.04926	28.55236	576.76294	-17.48031	709.18158	-990.49530	
3522	35.210	-801.22913	-16.87739	-646.77698	771.39929	-12.26928	-639.77130	-718.25238	20.73908	490.73691	698.91321	28.24261	576.63202	-17.80512	709.45355	-990.02258	
3523	35.220	-802.11993	-16.52063	-646.76575	770.33881	-11.95026	-639.79449	-719.16937	20.61138	490.65768	697.92700	27.95734	576.75977	-19.52477	710.15619	-989.14801	
3524	35.230	-803.23077	-16.22940	-646.53229	769.58575	-11.72982	-639.70612	-720.15387	20.44740	490.70792	697.36188	27.78067	576.85211	-19.92162	710.38574	-989.30499	
3525	35.240	-804.06635	-16.13060	-646.48193	768.65820	-11.42728	-639.48132	-720.99084	20.28032	490.98984	696.10938	27.47643	576.99902	-21.10033	711.00647	-989.05383	
3526	35.250	-804.75372	-15.93223	-646.32782	768.01703	-11.09684	-639.32654	-721.97363	20.11258	491.21283	695.25623	27.31206	577.00958	-21.85976	711.48730	-988.80450	
3527	35.260	-805.67993	-15.73513	-646.39203	766.99518	-10.71006	-639.48230	-722.81146	19.84348	491.25211	694.54700	27.00656	577.07611	-22.58693	711.78326	-988.29565	
3528	35.270	-806.70264	-15.21897	-646.37866	765.75323	-10.24951	-639.52307	-723.66339	19.63706	491.37180	693.63470	26.74434	577.29541	-23.58079	712.23340	-987.69000	
3529	35.280	-807.47345	-14.90900	-646.19983	765.17328	-10.08989	-639.32617	-724.62573	19.43813	491.43808	692.59619	26.31083	577.36542	-24.35084	712.77185	-987.24731	
3530	35.290	-808.38977	-14.38205	-646.22284	764.32098	-9.73850	-639.41260	-725.46002	19.18724	491.28192	691.79163	26.23347	577.35974	-25.50552	713.42529	-986.53723	
3531	35.300	-809.42371	-13.96442	-646.24164	763.18481	-9.27566	-639.23871	-726.35101	18.88756	491.34280	690.87512	25.92718	577.57123	-26.01793	713.89038	-986.17285	
3532	35.310	-810.34924	-13.41892	-646.11981	762.44751	-9.05363	-639.03528	-727.18445	18.48259	491.50180	690.22205	25.62692	577.72955	-26.74549	714.33551	-985.64594	
3533	35.320	-811.06342	-13.25879	-645.90796	761.91553	-8.82196	-638.97333	-728.07037	18.28627	491.54889	688.97925	25.16630	577.70618	-27.84108	715.33844	-984.99365	
3534	35.330	-811.63812	-13.05450	-645.94745	760.85315	-8.30454	-638.82428	-728.90930	18.06737	491.72961	688.28210	24.96585	577.77271	-28.57432	715.71680	-984.64050	
3535	35.340	-812.59601	-12.66053	-645.77478	760.17096	-7.85498	-638.69452	-729.59540	17.80492	491.86667	687.50568	24.65483	578.02124	-29.40823	716.16742	-984.21161	
3536	35.350	-813.91974	-11.91402	-645.55579	759.34570	-7.54511	-638.83881	-730.41364	17.57753	491.96527	686.88171	24.40760	578.10657	-30.35891	716.84387	-983.87250	
3537	35.360	-814.35742	-11.78181	-645.62000	758.39716	-7.13179	-638.72748	-731.28497	17.25978	492.02643	686.01178	24.03900	578.07025	-31.47066	717.40381	-983.39270	
3538	35.370	-815.03021	-11.48133	-645.49084	757.43726	-6.70769	-638.62402	-732.11694	17.06554	492.04755	685.07843	23.65456	578.16699	-32.06829	717.89178	-982.93323	
3539	35.380	-815.88489	-11.00723	-645.30682	756.85760	-6.27768	-638.59137	-732.89825	16.90124	492.15643	684.32538	23.29495	578.27118	-32.57721	718.43115	-982.51117	
3540	35.390	-816.59839	-10.61719	-645.39520	756.17810	-5.93127	-638.47235	-733.91077	16.52508	492.19910	683.68402	23.00467	578.40375	-33.63649	719.40851	-981.80774	
3541	35.400	-817.56226	-9.94009	-645.36945	755.25208	-5.46168	-638.37573	-734.32935	16.30082	492.28357	682.90692	22.61255	578.56433	-34.33164	719.90143	-981.36951	
3542	35.410	-818.27460	-9.45924	-645.21442	754.52209	-5.07193	-638.28650	-735.17761	15.84801	492.40591	682.03979	22.34347	578.68811	-34.89596	720.36792	-980.72131	
3543	35.420	-818.82544	-9.28550	-645.05847	753.99615	-4.67999	-638.21112	-735.90106	15.54511	492.54779	681.26477	21.92913	578.75348	-35.70376	721.12805	-979.93298	
3544	35.430	-819.84937	-8.70350	-644.96765	753.22955	-4.20910	-638.00867	-736.59570	15.40838	492.59586	680.73938	21.61809	578.89172	-36.68708	721.80487	-979.33643	
3545	35.440	-820.46716	-8.37860	-644.95490	752.35138	-3.68720	-638.14752	-737.41132	15.11319	492.74158	680.06946	21.30233	578.94159	-37.16995	722.32788	-978.86865	
3546	35.450	-821.24652	-7.79425	-644.81104	751.85687	-3.33088	-637.99664	-737.96875	14.83888	493.11179	679.27539	21.03058	579.01648	-37.72078	723.09021	-978.32971	
3547	35.460	-821.32635	-7.83787	-644.80841	751.18842	-2.97716	-637.77112	-738.55475	14.56952	493.25800	678.39258	20.54712	579.14343	-38.30343	723.62683	-977.64862	
3548	35.470	-822.24506	-7.19152	-644.59564	750.35577	-2.60654	-637.62775	-739.34906	14.12325	493.39380	677.94684	20.21468	579.36096	-39.11933	724.28052	-977.04218	
3549	35.480	-823.02045	-6.84518	-644.49261	749.49646	-2.09559	-637.68176	-739.84375	13.92172	493.58246	677.37830	19.86057	579.52631	-39.74066	724.95959	-976.54309	
3550	35.490	-823.60370	-6.52210	-644.45996	749.10980	-1.73225	-637.64661	-740.40771	13.56493	493.63751	676.75452	19.46501	579.58466	-40.58282	725.62207	-975.73474	
3551	35.500	-824.34491	-5.61848	-644.47186	748.60541	-1.33675	-637.53833	-741.26129	13.19618	493.67450	676.57013	18.75976	579.21277	-40.89677	726.38702	-975.48688	
3552	35.510	-824.76239	-5.13277	-644.35956	747.90997	-0.89270	-637.31549	-741.79669	12.96656	493.47604	675.94153	18.38525	579.29376	-41.33987	726.91943	-974.91052	
3553	35.520	-825.22760	-4.89519	-644.07587	747.26477	-0.39663	-637.11127	-742.18311	12.65919	493.65469	675.51367	18.16971	579.39557	-42.05342	727.55365	-974.26917	
3554	35.530	-826.02356	-4.29678	-643.83990	746.91016	-0.01897	-636.87982	-742.87201	12.27255	493.72214	674.75641	17.74017	579.54614	-42.65488	728.27411	-973.78430	
